HIERARCHY
ROOT Hips
{
	OFFSET 0.00000 0.00000 0.00000
	CHANNELS 6 Xposition Yposition Zposition Zrotation Yrotation Xrotation 
	JOINT LHipJoint
	{
		OFFSET 0 0 0
		CHANNELS 3 Zrotation Yrotation Xrotation
		JOINT LeftHip
		{
			OFFSET 1.36337 -1.57426 1.11036
			CHANNELS 3 Zrotation Yrotation Xrotation
			JOINT LeftKnee
			{
				OFFSET 2.38468 -6.55187 0.00000
				CHANNELS 3 Zrotation Yrotation Xrotation
				JOINT LeftAnkle
				{
					OFFSET 2.37166 -6.51609 0.00000
					CHANNELS 3 Zrotation Yrotation Xrotation
					JOINT LeftToe
					{
						OFFSET 0.29078 -0.79891 2.01393
						CHANNELS 3 Zrotation Yrotation Xrotation
						End Site
						{
							OFFSET 0.00000 -0.00000 1.07924
						}
					}
				}
			}
		}
	}
	JOINT RHipJoint
	{
		OFFSET 0 0 0
		CHANNELS 3 Zrotation Yrotation Xrotation
		JOINT RightHip
		{
			OFFSET -1.36349 -1.57426 1.11036
			CHANNELS 3 Zrotation Yrotation Xrotation
			JOINT RightKnee
			{
				OFFSET -2.29562 -6.30717 0.00000
				CHANNELS 3 Zrotation Yrotation Xrotation
				JOINT RightAnkle
				{
					OFFSET -2.40985 -6.62100 0.00000
					CHANNELS 3 Zrotation Yrotation Xrotation
					JOINT RightToe
					{
						OFFSET -0.23197 -0.63733 1.92232
						CHANNELS 3 Zrotation Yrotation Xrotation
						End Site
						{
							OFFSET -0.00000 -0.00000 1.01562
						}
					}
				}
			}
		}
	}
	JOINT lowerback
	{
		OFFSET 0 0 0
		CHANNELS 3 Zrotation Yrotation Xrotation
		JOINT Chest
		{
			OFFSET -0.08565 2.03602 -0.24562
			CHANNELS 3 Zrotation Yrotation Xrotation
			JOINT Chest2
			{
				OFFSET -0.00036 2.05693 0.00216
				CHANNELS 3 Zrotation Yrotation Xrotation
				JOINT lowerneck
				{
					OFFSET 0 0 0
					CHANNELS 3 Zrotation Yrotation Xrotation
					JOINT Neck
					{
						OFFSET -0.03664 1.69515 0.31789
						CHANNELS 3 Zrotation Yrotation Xrotation
						JOINT Head
						{
							OFFSET 0.00932 1.70181 -0.46013
							CHANNELS 3 Zrotation Yrotation Xrotation
							End Site
							{
								OFFSET 0.01243 1.77620 -0.19377
							}
						}
					}
				}
				JOINT LeftCollar
				{
					OFFSET 0 0 0
					CHANNELS 3 Zrotation Yrotation Xrotation
					JOINT LeftShoulder
					{
						OFFSET 3.74344 0.81315 -0.36647
CHANNELS 3 Zrotation Xrotation Yrotation
						JOINT LeftElbow
						{
OFFSET 0 -4.971850 -0.000000
CHANNELS 3 Zrotation Xrotation Yrotation
							JOINT LeftWrist
							{
OFFSET 0 -3.358110 0.000000
CHANNELS 3 Zrotation Xrotation Yrotation
								JOINT lhand
								{
									OFFSET 0 0 0
CHANNELS 3 Zrotation Xrotation Yrotation
									JOINT LFingers
									{
OFFSET 0 -0.622780 0.000000
CHANNELS 3 Zrotation Xrotation Yrotation
										End Site
										{
OFFSET 0 -0.502100 0.000000
										}
									}
								}
								JOINT LThumb
								{
OFFSET 0 0.000000 0.000000
CHANNELS 3 Zrotation Xrotation Yrotation
									End Site
									{
OFFSET 0 -0.509760 0.509760
									}
								}
							}
						}
					}
				}
				JOINT RightCollar
				{
					OFFSET 0 0 0
					CHANNELS 3 Zrotation Yrotation Xrotation
					JOINT RightShoulder
					{
						OFFSET -3.75385 0.50666 -0.06525
CHANNELS 3 Zrotation Xrotation Yrotation
						JOINT RightElbow
						{
OFFSET 0 -4.964930 -0.000000
CHANNELS 3 Zrotation Xrotation Yrotation
							JOINT RightWrist
							{
OFFSET 0 -3.349290 0.000000
CHANNELS 3 Zrotation Xrotation Yrotation
								JOINT rhand
								{
									OFFSET 0 0 0
CHANNELS 3 Zrotation Xrotation Yrotation
									JOINT RFingers
									{
OFFSET 0 -0.638040 0.000000
CHANNELS 3 Zrotation Xrotation Yrotation
										End Site
										{
OFFSET 0 -0.514410 0.000000
										}
									}
								}
								JOINT RThumb
								{
OFFSET 0 0.000000 0.000000
CHANNELS 3 Zrotation Xrotation Yrotation
									End Site
									{
OFFSET 0 -0.522260 0.522260
									}
								}
							}
						}
					}
				}
			}
		}
	}
}
MOTION
Frames: 7
Frame Time: 0.008333333333333333
4.372400 16.899600 -1.490900 141.050000 -85.905100 -134.704000 0.000000 0.000000 0.000000 -20.953100 -8.012300 -8.071000 2.082500 9.035900 25.907700 1.740500 6.862300 -28.192000 0.238400 3.142400 8.675500 0.000000 0.000000 0.000000 16.283600 2.668500 -10.222900 -1.506400 -7.751800 21.962700 -1.155600 -7.982300 -24.654300 -0.480300 -4.444500 12.330600 -2.544100 0.371400 -9.844000 -1.882400 0.882000 0.585500 -0.408800 0.369800 6.137000 4.233000 11.405600 -19.482900 -20.513300 22.356100 33.759900 -5.483700 6.240800 20.180800 0.000000 0.000000 0.000000 -0.553700 -1.280400 -21.618100 11.550400 -19.127000 1.952500 21.419700 -4.513600 13.163500 0.000000 0.000000 0.000000 -7.125000 0.000000 0.000000 -4.069000 15.901000 -2.805700 0.000000 0.000000 0.000000 3.282400 3.735900 10.455900 -13.454300 -21.949300 -2.620700 -8.815600 2.617500 29.307600 0.000000 0.000000 0.000000 7.125000 0.000000 -0.000000 24.542000 57.846400 -8.035100
4.356316 16.887537 -1.488586 141.336290 -86.096839 -134.858272 0.000000 0.000000 0.000000 -20.799795 -8.058850 -8.210428 2.102592 9.076465 26.034868 1.759671 6.726317 -28.240625 0.247782 3.203039 8.844650 0.000000 0.000000 0.000000 16.357344 2.511109 -10.234214 -1.521821 -7.789457 22.076537 -1.278873 -7.172145 -25.079791 -0.664462 -5.211625 14.513407 -2.512931 0.386694 -9.937444 -1.920921 0.902022 0.534492 -0.463341 0.380992 6.137046 4.928948 11.844045 -20.089341 -21.358402 22.787134 31.700142 -5.620790 6.554176 19.482173 0.000000 0.000000 0.000000 -0.741768 -0.734780 -21.002944 11.936245 -19.708927 2.080739 21.072820 -4.497320 12.694999 0.000000 0.000000 0.000000 -7.125000 0.000000 0.000000 -4.290336 16.432232 -2.909699 0.000000 0.000000 0.000000 3.126096 3.906420 9.714857 -13.524565 -22.050947 -2.647000 -8.938341 2.479196 29.161838 0.000000 0.000000 0.000000 7.125000 0.000000 0.000000 24.309438 57.740896 -7.890363
4.294260 16.872293 -1.460808 135.347125 -86.041073 -128.947805 0.000000 0.000000 0.000000 -21.415675 -7.833210 -7.799465 2.098367 9.068048 26.008287 1.820046 6.276145 -28.383510 0.254283 3.244373 8.959863 0.000000 0.000000 0.000000 15.675718 -1.163343 -11.345182 -1.525233 -7.797867 22.101797 -1.207594 -4.856253 -23.034435 -0.421080 -4.153776 11.511243 -2.604847 0.203646 -10.462496 -2.167623 0.703934 0.612464 -0.699773 0.278888 6.521697 5.842936 12.294659 -20.353921 -22.263350 23.040734 29.388116 -5.855920 6.860112 18.612249 0.000000 0.000000 0.000000 -0.900846 -0.218218 -19.931848 12.068266 -19.906930 2.125439 21.100357 -5.353262 13.060850 0.000000 0.000000 0.000000 -7.125000 0.000000 0.000000 -4.285131 16.041766 -2.942426 0.000000 0.000000 0.000000 2.885672 4.284948 9.574785 -13.788969 -22.432113 -2.747161 -9.012001 1.960141 29.221308 0.000000 0.000000 0.000000 7.125000 0.000000 0.000000 24.284050 57.809741 -7.925468
4.309446 16.893113 -1.464867 138.808731 -86.372953 -132.274284 0.000000 0.000000 0.000000 -20.895608 -7.902483 -8.001702 2.082715 9.036352 25.908957 1.783994 6.378183 -28.200186 0.241596 3.162976 8.732788 0.000000 0.000000 0.000000 16.207046 -0.066144 -11.189551 -1.523615 -7.794026 22.090222 -1.192342 -5.887150 -23.531535 -0.422840 -4.173242 11.564608 -2.482022 0.212677 -9.989430 -2.069497 0.665849 0.341152 -0.671208 0.268397 5.966653 6.665365 12.805551 -20.460302 -23.098128 23.393206 27.251520 -6.044532 7.191786 17.862823 0.000000 0.000000 0.000000 -1.165112 0.276742 -18.897981 11.996597 -19.799495 2.101132 21.052183 -4.870410 13.312117 0.000000 0.000000 0.000000 -7.125000 0.000000 0.000000 -4.328114 15.780181 -2.996706 0.000000 0.000000 0.000000 2.556507 4.904916 9.096143 -14.307861 -23.172644 -2.948424 -8.875227 1.055313 29.964464 0.000000 0.000000 0.000000 7.125000 0.000000 0.000000 24.990120 58.450106 -8.563781
4.311291 16.894066 -1.465496 138.642513 -86.624222 -132.111205 0.000000 0.000000 0.000000 -20.657062 -7.945930 -8.221322 2.128818 9.129335 26.200679 1.778005 6.242058 -28.081219 0.236442 3.129124 8.638439 0.000000 0.000000 0.000000 16.440918 0.449644 -10.862569 -1.466726 -7.653501 21.666533 -1.115693 -6.855539 -23.538946 -0.390074 -4.010327 11.105759 -2.555215 0.100243 -9.825058 -1.995768 0.512507 0.287384 -0.575397 0.191387 5.816460 6.978516 13.345346 -20.991992 -23.376178 23.826752 25.446537 -5.880548 7.501350 17.239069 0.000000 0.000000 0.000000 -1.417978 0.768878 -18.217012 12.163315 -20.049138 2.157995 20.982642 -5.535851 13.761020 0.000000 0.000000 0.000000 -7.125000 0.000000 0.000000 -4.394173 15.312016 -3.087009 0.000000 0.000000 0.000000 2.246253 5.122916 7.910279 -14.733349 -23.773299 -3.117677 -8.789208 0.482623 28.658043 0.000000 0.000000 0.000000 7.125000 0.000000 0.000000 24.087718 57.253609 -7.524783
4.323421 16.900177 -1.461642 139.090012 -86.863307 -132.432962 0.000000 0.000000 0.000000 -20.400731 -8.142860 -8.485947 2.149847 9.171495 26.333282 1.766498 6.200439 -27.979206 0.245431 3.187835 8.802125 0.000000 0.000000 0.000000 16.767342 0.624879 -10.849321 -1.440758 -7.588603 21.471216 -1.054450 -7.560957 -23.525048 -0.327807 -3.679730 10.177354 -2.571857 0.079337 -9.616175 -1.975218 0.473628 0.201203 -0.549666 0.173518 5.607787 7.673201 13.727050 -21.118514 -24.154682 23.877293 23.113339 -6.096928 7.715330 16.394681 0.000000 0.000000 0.000000 -1.561166 1.137320 -17.726177 12.399581 -20.401199 2.239670 20.412104 -5.152027 13.093702 0.000000 0.000000 0.000000 -7.125000 0.000000 0.000000 -4.761074 16.073804 -3.268078 0.000000 0.000000 0.000000 2.080898 5.168865 6.353945 -15.325092 -24.596866 -3.360169 -8.968123 0.037703 29.225288 0.000000 0.000000 0.000000 7.125000 0.000000 0.000000 24.326982 57.804725 -7.934343
4.318139 16.899596 -1.453929 137.422429 -86.923876 -130.714903 0.000000 0.000000 0.000000 -20.460560 -8.343861 -8.420909 2.143005 9.157822 26.290196 1.797258 6.125366 -28.144541 0.266309 3.320077 9.171044 0.000000 0.000000 0.000000 16.688694 0.885916 -10.745068 -1.447732 -7.606068 21.523849 -1.100151 -7.524666 -23.877436 -0.373416 -3.924473 10.864237 -2.770295 -0.044536 -9.482531 -1.925098 0.319245 0.127710 -0.407121 0.092681 5.455185 8.260262 14.265619 -21.425861 -24.654336 24.205844 21.228776 -6.133923 8.001089 15.834930 0.000000 0.000000 0.000000 -1.940830 1.596477 -16.792891 12.623967 -20.733788 2.318494 20.036962 -4.916079 12.959041 0.000000 0.000000 0.000000 -7.125000 0.000000 0.000000 -5.015587 16.251195 -3.424879 0.000000 0.000000 0.000000 1.570802 5.083376 4.811775 -15.847773 -25.313534 -3.580805 -9.018321 -1.528941 26.959272 0.000000 0.000000 0.000000 7.125000 0.000000 0.000000 22.688552 55.750452 -6.214744
